<?xml version="1.0" encoding="UTF-8"?>
<svg id="Capa_2" data-name="Capa 2" xmlns="http://www.w3.org/2000/svg" viewBox="0 0 109.87 72.96">
  <defs>
    <style>
      .cls-1 {
        fill: #003764;
      }
    </style>
  </defs>
  <g id="Capa_1-2" data-name="Capa 1">
    <g>
      <path class="cls-1" d="M13.45,14.88v10.97H1.53V13.35C1.53,6.77,4.87,.1,14.5,.1h2.58C26.23,.1,31.47,4.58,31.47,13.73v4.01c0,7.63-.19,11.45-6.2,19.27-2.19,2.96-4.67,6.1-6.96,9.06-8.11,10.68-7.44,12.02-7.44,13.54h8.87v-12.11h12.4v24.42H0v-7.25c0-8.68,.95-12.4,8.58-25.08l6.1-10.11c3.34-5.63,3.53-7.73,3.53-10.3v-4.29c0-2.19-.76-3.24-2.38-3.24-1.81,0-2.38,.95-2.38,3.24"/>
      <path class="cls-1" d="M69.43,.95V71.91h-12.21v-5.72c-1.34,2.38-4.01,6.77-8.49,6.77h-.19c-5.05,0-8.58-5.06-8.58-10.97V30.23c0-4.86,2.58-10.2,7.63-10.2h.48c4.86,0,7.63,4,9.16,6.29V.95h12.21Zm-12.21,33.57c0-2.38-.57-4.01-2.57-4.01-1.62,0-2.39,1.14-2.39,3.53v24.7c0,2.19,.57,3.53,2.39,3.53,1.91,0,2.57-1.43,2.57-4.01v-23.75Z"/>
      <path class="cls-1" d="M101.28,26.23c6.2,0,8.58,5.05,8.58,8.96v23.46c0,7.06-4.96,14.21-14.5,14.21h-2.86c-10.2,0-14.88-6.39-14.88-13.83V15.07c0-8.87,4.48-15.07,14.69-15.07h2.67c9.06,0,13.54,5.63,13.54,11.73v10.68h-13.07v-7.92c0-1.81-.38-2.76-2.29-2.76s-2.38,1.33-2.38,2.76v18.03c1.81-2.1,4.86-6.3,9.73-6.3h.76Zm-4.67,30.9v-16.31c0-2.58-.86-3.53-2.86-3.53s-2.95,1.14-2.95,3.43v16.4c0,1.91,.38,3.72,2.95,3.72s2.86-1.91,2.86-3.72"/>
    </g>
  </g>
</svg>